<svg xmlns="http://www.w3.org/2000/svg" xmlns:xlink="http://www.w3.org/1999/xlink" width="500" zoomAndPan="magnify" viewBox="0 0 375 374.999991" height="500" preserveAspectRatio="xMidYMid meet" version="1.0"><defs><clipPath id="6ed120c8ec"><path d="M 13 6.550781 L 361 6.550781 L 361 368.636719 L 13 368.636719 Z M 13 6.550781 " clip-rule="nonzero"/></clipPath></defs><g clip-path="url(#6ed120c8ec)"><path fill="#007ef5" d="M 211.171875 16.871094 C 198.347656 3.109375 176.570312 3.109375 163.746094 16.871094 L 152.511719 28.925781 C 144.886719 37.105469 133.597656 40.78125 122.628906 38.652344 L 106.464844 35.515625 C 88.015625 31.933594 70.398438 44.753906 68.097656 63.4375 L 66.082031 79.804688 C 64.714844 90.910156 57.738281 100.535156 47.613281 105.269531 L 32.699219 112.246094 C 15.671875 120.210938 8.941406 140.957031 18.042969 157.429688 L 26.015625 171.855469 C 31.425781 181.648438 31.425781 193.539062 26.015625 203.332031 L 18.042969 217.761719 C 8.941406 234.230469 15.671875 254.976562 32.699219 262.941406 L 47.613281 269.917969 C 57.738281 274.65625 64.714844 284.277344 66.082031 295.382812 L 68.097656 311.75 C 70.398438 330.433594 88.015625 343.253906 106.464844 339.675781 L 122.628906 336.539062 C 133.597656 334.40625 144.886719 338.082031 152.511719 346.265625 L 163.746094 358.316406 C 176.570312 372.078125 198.347656 372.078125 211.171875 358.316406 L 222.40625 346.265625 C 230.03125 338.082031 241.320312 334.40625 252.289062 336.539062 L 268.449219 339.675781 C 286.898438 343.253906 304.515625 330.433594 306.816406 311.75 L 308.835938 295.382812 C 310.203125 284.277344 317.179688 274.65625 327.304688 269.917969 L 342.21875 262.941406 C 359.246094 254.976562 365.976562 234.230469 356.875 217.761719 L 348.902344 203.332031 C 343.492188 193.539062 343.492188 181.648438 348.902344 171.855469 L 356.875 157.429688 C 365.976562 140.957031 359.246094 120.210938 342.21875 112.246094 L 327.304688 105.269531 C 317.179688 100.535156 310.203125 90.910156 308.835938 79.804688 L 306.816406 63.4375 C 304.515625 44.753906 286.898438 31.933594 268.449219 35.515625 L 252.289062 38.652344 C 241.320312 40.78125 230.03125 37.105469 222.40625 28.925781 Z M 250.808594 166.472656 C 256.324219 160.945312 256.320312 151.992188 250.800781 146.46875 C 245.277344 140.949219 236.328125 140.953125 230.8125 146.480469 L 175.867188 201.527344 L 144.105469 169.707031 C 138.589844 164.179688 129.640625 164.171875 124.117188 169.695312 C 118.597656 175.214844 118.589844 184.171875 124.105469 189.699219 L 165.867188 231.535156 C 168.519531 234.191406 172.117188 235.683594 175.867188 235.683594 C 179.617188 235.683594 183.214844 234.191406 185.867188 231.535156 Z M 250.808594 166.472656 " fill-opacity="1" fill-rule="evenodd"/></g></svg>